# xmcd
#
# Track frame offsets: 
#        150
#        9261
#        28485
#        45879
#        57129
#        71337
#        82190
#        97998
#        120154
#        129217
#
# Disc length: 1900 seconds
#
# Revision: 0
# Processed by: cddbd v1.5.1PL0 Copyright (c) Steve Scherf et al.
# Submitted via: ExactAudioCopy v0.95a5
#
DISCID=6e076a0a
DTITLE=Kelly Kessler - The Salt Of Your Skin
DYEAR=2002
DGENRE=Acoustic
TTITLE0=You Are My Sunshine
TTITLE1=Meet Me Tonight At The Landfill
TTITLE2=The Salt Of Your Skin
TTITLE3=Eastlake
TTITLE4=Can't Go Home
TTITLE5=Your Darling Ain't Done Shit Today
TTITLE6=Well Of Tears
TTITLE7=Back He Flew Away
TTITLE8=This Is Gonna Hurt You More (Than It Hurts Me)
TTITLE9=One True Way
EXTD=
EXTT0=
EXTT1=
EXTT2=
EXTT3=
EXTT4=
EXTT5=
EXTT6=
EXTT7=
EXTT8=
EXTT9=
PLAYORDER=
